<?xml version="1.0" encoding="utf-8"?>
<!-- Generator: Adobe Illustrator 16.0.4, SVG Export Plug-In . SVG Version: 6.00 Build 0)  -->
<!DOCTYPE svg PUBLIC "-//W3C//DTD SVG 1.1//EN" "http://www.w3.org/Graphics/SVG/1.1/DTD/svg11.dtd">
<svg version="1.1" id="Layer_1" xmlns="http://www.w3.org/2000/svg" xmlns:xlink="http://www.w3.org/1999/xlink" x="0px" y="0px"
	 width="26.349px" height="6.543px" viewBox="0 0 26.349 6.543" enable-background="new 0 0 26.349 6.543" xml:space="preserve">
<g>
	<path fill="#A7A9AC" d="M10.538,0.157c1.47-0.373,1.631-0.081,1.758,0.875l0.285,2.142c0.127,0.957-0.553,1.844-1.51,1.971
		L0.591,6.536C-0.366,6.663-0.11,5.21,0.995,4.399C1.835,3.782,5.122,1.529,10.538,0.157z"/>
</g>
<g>
	<path fill="#A7A9AC" d="M15.812,0.157c-1.471-0.373-1.632-0.081-1.759,0.875l-0.284,2.142c-0.127,0.957,0.552,1.844,1.509,1.971
		l10.481,1.392c0.956,0.127,0.7-1.325-0.405-2.137C24.514,3.782,21.227,1.529,15.812,0.157z"/>
</g>
</svg>
