<?xml version="1.0" encoding="utf-8"?>
<!-- Generator: Adobe Illustrator 16.0.4, SVG Export Plug-In . SVG Version: 6.00 Build 0)  -->
<!DOCTYPE svg PUBLIC "-//W3C//DTD SVG 1.1//EN" "http://www.w3.org/Graphics/SVG/1.1/DTD/svg11.dtd">
<svg version="1.1" id="Layer_1" xmlns="http://www.w3.org/2000/svg" xmlns:xlink="http://www.w3.org/1999/xlink" x="0px" y="0px"
	 width="19.5px" height="29.865px" viewBox="0 0 19.5 29.865" enable-background="new 0 0 19.5 29.865" xml:space="preserve">
<path fill="#BCBEC0" d="M0,6.059c0-1.126,0.898-2.253,1.995-2.504L17.504,0C18.602-0.252,19.5,0.464,19.5,1.59v17.437
	c0,1.126-0.637,2.713-1.416,3.526L11.8,29.117c-0.779,0.814-2.197,0.991-3.152,0.395l-6.911-4.317C0.782,24.598,0,23.188,0,22.062
	V6.059z"/>
<g>
	<defs>
		<path id="SVGID_1_" d="M0,6.059c0-1.126,0.898-2.253,1.995-2.504L17.504,0C18.602-0.252,19.5,0.464,19.5,1.59v17.437
			c0,1.126-0.637,2.713-1.416,3.526L11.8,29.117c-0.779,0.814-2.197,0.991-3.152,0.395l-6.911-4.317C0.782,24.598,0,23.188,0,22.062
			V6.059z"/>
	</defs>
	<clipPath id="SVGID_2_">
		<use xlink:href="#SVGID_1_"  overflow="visible"/>
	</clipPath>
	<rect x="8.667" y="0.716" clip-path="url(#SVGID_2_)" fill="#BE1E2D" width="3.25" height="33.854"/>
	
		<rect x="8.261" y="-2.71" transform="matrix(-0.2079 -0.9781 0.9781 -0.2079 -1.9645 26.8428)" clip-path="url(#SVGID_2_)" fill="#BE1E2D" width="3.25" height="33.854"/>
</g>
</svg>
