<?xml version="1.0" encoding="utf-8"?>
<!-- Generator: Adobe Illustrator 16.0.4, SVG Export Plug-In . SVG Version: 6.00 Build 0)  -->
<!DOCTYPE svg PUBLIC "-//W3C//DTD SVG 1.1//EN" "http://www.w3.org/Graphics/SVG/1.1/DTD/svg11.dtd">
<svg version="1.1" id="Layer_1" xmlns="http://www.w3.org/2000/svg" xmlns:xlink="http://www.w3.org/1999/xlink" x="0px" y="0px"
	 width="142px" height="182px" viewBox="0 0 142 182" enable-background="new 0 0 142 182" xml:space="preserve">
<g>
	<circle fill="#404041" cx="71" cy="111" r="71"/>
	<rect x="49" y="29" fill="#404041" width="42.471" height="17.995"/>
	<ellipse fill="#404041" cx="70.235" cy="29" rx="21.236" ry="5"/>
</g>
<g>
	<g>
		<path fill="#FFFFFF" d="M75.175,25.335c-2.001-4.767-4.473-12.727,0.913-16.302c5.219-3.463,11.562,3.125,14.408,6.734
			c0.811-1.393,1.621-2.786,2.434-4.178c-2.625-0.366-4.227-4.293-1.261-5.234c1.194-0.379,2.491-0.394,3.729-0.451
			c1.953-0.09,3.914,0.067,5.865,0.096c3.225,0.049,3.221-4.951,0-5c-5.129-0.078-11.261-0.877-15.285,2.997
			C81.32,8.481,86.504,15.7,91.598,16.411c2.545,0.355,4.049-2.129,2.434-4.178C89.221,6.128,81.393,0.617,73.564,4.716
			c-7.901,4.138-5.961,15.396-3.211,21.948C71.581,29.591,76.422,28.308,75.175,25.335L75.175,25.335z"/>
	</g>
</g>
</svg>
