<?xml version="1.0" encoding="utf-8"?>
<!-- Generator: Adobe Illustrator 16.0.3, SVG Export Plug-In . SVG Version: 6.00 Build 0)  -->
<!DOCTYPE svg PUBLIC "-//W3C//DTD SVG 1.1//EN" "http://www.w3.org/Graphics/SVG/1.1/DTD/svg11.dtd">
<svg version="1.1" id="Layer_1" xmlns="http://www.w3.org/2000/svg" xmlns:xlink="http://www.w3.org/1999/xlink" x="0px" y="0px"
	 width="142px" height="182px" viewBox="0 0 142 182" enable-background="new 0 0 142 182" xml:space="preserve">
<g>
	<circle fill="#404041" cx="71" cy="111" r="71"/>
	<rect x="49" y="29" fill="#404041" width="42.47" height="17.995"/>
	<ellipse fill="#404041" cx="70.235" cy="29" rx="21.235" ry="5"/>
</g>
<g>
	<path fill-rule="evenodd" clip-rule="evenodd" fill="#FFFFFF" d="M45.77,126.735c0.931-3.258,3.16-5.574,5.609-7.73
		c16.28-14.339,32.487-28.763,48.891-42.958c4.274-3.698,9.569-5.51,15.368-5.315c0.529,0.019,1.053,0.194,1.781,0.336
		c-4.878,4.156-9.587,8.181-14.309,12.19c-8.879,7.538-17.76,15.074-26.656,22.59c-0.91,0.769-1.914,1.432-2.905,2.1
		c-2.271,1.53-2.939,3.33-2.069,5.936c1.473,4.405,0.32,8.242-2.373,11.818c-2.743,3.645-6.186,6.319-10.486,7.871
		c-1.085,0.196-2.17,0.393-3.254,0.59c-2.116-0.252-4.212-0.578-5.797-2.206c-1.195-1.229-2.355-2.493-3.531-3.741
		C45.948,127.723,45.859,127.229,45.77,126.735z M55.973,129.954c6.022-1.703,10.034-5.463,12.196-11.224
		c0.221-0.589,0.213-1.269,0.268-1.91c0.1-1.164-0.068-2.306-1.312-2.739c-1.354-0.472-2.774-0.866-4.101,0.22
		c-3.32,2.719-6.68,5.387-9.977,8.131c-1.324,1.103-2.352,2.454-2.536,4.272c-0.172,1.701,0.696,3.002,2.372,3.245
		C53.901,130.098,54.961,129.962,55.973,129.954z"/>
	<path fill-rule="evenodd" clip-rule="evenodd" fill="#FFFFFF" d="M79.819,105.667c1.615-1.411,3.12-2.793,4.717-4.06
		c0.307-0.242,1.021-0.165,1.468-0.008c11.694,4.118,23.377,8.266,35.063,12.409c1.407,0.499,2.816,0.993,4.226,1.491
		c0.037,0.164,0.073,0.329,0.11,0.492c-1.806,0.587-3.601,1.21-5.422,1.745c-1.005,0.294-2.062,0.412-3.083,0.659
		c-3.008,0.728-5.827,0.461-8.738-0.805C98.811,113.528,89.374,109.669,79.819,105.667z"/>
	<path fill-rule="evenodd" clip-rule="evenodd" fill="#FFFFFF" d="M73.532,97.065c-1.485,1.319-2.718,2.493-4.048,3.544
		c-0.379,0.299-1.105,0.447-1.567,0.31c-6.321-1.882-12.641-3.772-18.92-5.792c-1.643-0.528-3.252-1.342-4.685-2.308
		c-3.208-2.163-4.287-5.82-3.078-9.676c0.952-3.035,4.001-5.022,7.724-5.091c4.362-0.081,7.967,1.471,10.37,5.153
		c0.805,1.234,1.275,2.85,1.401,4.333c0.395,4.633,1.159,5.674,5.67,7.077C68.732,95.34,71.024,96.199,73.532,97.065z
		 M57.016,87.753c-0.579-3.156-4.5-6.098-7.909-5.933c-2.689,0.129-4.285,1.305-4.758,3.504c-0.415,1.931,0.465,3.662,2.844,4.702
		c1.899,0.829,3.943,1.447,5.984,1.803C56.253,92.365,57.581,90.835,57.016,87.753z"/>
</g>
<g>
	<g>
		<path fill="#FFFFFF" d="M75.175,25.335c-2.001-4.767-4.473-12.727,0.913-16.302c5.219-3.463,11.563,3.125,14.408,6.734
			c0.811-1.393,1.621-2.786,2.433-4.178c-2.625-0.366-4.226-4.293-1.26-5.234c1.194-0.379,2.491-0.394,3.73-0.451
			c1.952-0.09,3.913,0.067,5.864,0.096c3.226,0.049,3.222-4.951,0-5c-5.128-0.078-11.26-0.877-15.284,2.997
			c-4.658,4.484,0.525,11.703,5.619,12.414c2.544,0.355,4.048-2.129,2.433-4.178C89.22,6.128,81.392,0.617,73.564,4.716
			c-7.901,4.138-5.961,15.396-3.211,21.948C71.581,29.591,76.422,28.308,75.175,25.335L75.175,25.335z"/>
	</g>
</g>
</svg>
