<?xml version="1.0" encoding="utf-8"?>
<!-- Generator: Adobe Illustrator 16.0.3, SVG Export Plug-In . SVG Version: 6.00 Build 0)  -->
<!DOCTYPE svg PUBLIC "-//W3C//DTD SVG 1.1//EN" "http://www.w3.org/Graphics/SVG/1.1/DTD/svg11.dtd">
<svg version="1.1" id="Layer_1" xmlns="http://www.w3.org/2000/svg" xmlns:xlink="http://www.w3.org/1999/xlink" x="0px" y="0px"
	 width="142px" height="182px" viewBox="0 0 142 182" enable-background="new 0 0 142 182" xml:space="preserve">
<g>
	<circle fill="#404041" cx="71" cy="110.938" r="71"/>
	<rect x="49" y="28.938" fill="#404041" width="42.47" height="17.995"/>
	<ellipse fill="#404041" cx="70.235" cy="28.938" rx="21.235" ry="5"/>
</g>
<g>
	<polygon fill-rule="evenodd" clip-rule="evenodd" fill="#FFFFFF" points="74.242,67.115 62.123,73.639 71.705,76.289 	"/>
	<polygon fill-rule="evenodd" clip-rule="evenodd" fill="#FFFFFF" points="75.416,67.44 72.555,77.788 61.798,74.813 
		52.704,107.684 110.806,123.759 122.763,80.538 	"/>
	<polygon fill-rule="evenodd" clip-rule="evenodd" fill="#FFFFFF" points="74.242,67.115 62.123,73.639 71.705,76.289 	"/>
</g>
<g>
	<g>
		<path fill="#FFFFFF" d="M73.411,27.835c-2.001-4.767-4.474-12.727,0.913-16.302c5.218-3.463,11.563,3.125,14.408,6.734
			c0.811-1.393,1.621-2.786,2.433-4.178c-2.625-0.366-4.226-4.293-1.26-5.234c1.194-0.379,2.491-0.394,3.73-0.451
			c1.952-0.09,3.913,0.067,5.864,0.096c3.226,0.049,3.222-4.951,0-5c-5.128-0.078-11.26-0.877-15.284,2.997
			c-4.658,4.484,0.525,11.703,5.619,12.414c2.544,0.355,4.048-2.129,2.433-4.178c-4.813-6.104-12.64-11.615-20.467-7.516
			c-7.901,4.138-5.961,15.396-3.211,21.948C69.817,32.091,74.658,30.808,73.411,27.835L73.411,27.835z"/>
	</g>
</g>
</svg>
