<?xml version="1.0" encoding="utf-8"?>
<!-- Generator: Adobe Illustrator 16.0.3, SVG Export Plug-In . SVG Version: 6.00 Build 0)  -->
<!DOCTYPE svg PUBLIC "-//W3C//DTD SVG 1.1//EN" "http://www.w3.org/Graphics/SVG/1.1/DTD/svg11.dtd">
<svg version="1.1" id="Layer_1" xmlns="http://www.w3.org/2000/svg" xmlns:xlink="http://www.w3.org/1999/xlink" x="0px" y="0px"
	 width="142px" height="182px" viewBox="0 0 142 182" enable-background="new 0 0 142 182" xml:space="preserve">
<g>
	<circle fill="#404041" cx="71" cy="111.179" r="71"/>
	<rect x="49" y="29.179" fill="#404041" width="42.471" height="17.995"/>
	<ellipse fill="#404041" cx="70.235" cy="29.179" rx="21.236" ry="5"/>
</g>
<g>
	<g>
		<path fill="#FFFFFF" d="M74.411,27.667C72.41,22.9,69.938,14.94,75.324,11.365c5.218-3.463,11.563,3.125,14.408,6.734
			c0.811-1.393,1.621-2.786,2.433-4.178c-2.625-0.366-4.226-4.293-1.261-5.234c1.195-0.379,2.492-0.394,3.73-0.451
			c1.952-0.09,3.913,0.066,5.864,0.096c3.226,0.049,3.222-4.951,0-5c-5.128-0.078-11.261-0.877-15.284,2.997
			c-4.658,4.484,0.525,11.703,5.619,12.414c2.544,0.355,4.048-2.129,2.434-4.178C88.455,8.46,80.628,2.949,72.801,7.048
			C64.9,11.186,66.84,22.444,69.59,28.996C70.817,31.923,75.658,30.639,74.411,27.667L74.411,27.667z"/>
	</g>
</g>
<g id="Your_Icon">
	<polygon fill="#FFFFFF" points="29.805,92.372 41.7,82.14 46.098,71.739 81.747,58.21 94.554,71.401 78.511,80.303 62.822,83.411 
		80.08,82.912 99.978,75.471 110.709,75.453 118.881,84.365 116.252,90.676 118.06,96.572 124.081,104.418 121.854,117.045 
		102.539,124.469 77.291,127.439 75.134,123.126 84.786,118.23 100.477,113.221 86.356,114.79 70.667,121.066 40.9,119.271 
		38.67,104.418 	"/>
</g>
</svg>
