<?xml version="1.0" encoding="utf-8"?>
<!-- Generator: Adobe Illustrator 16.0.3, SVG Export Plug-In . SVG Version: 6.00 Build 0)  -->
<!DOCTYPE svg PUBLIC "-//W3C//DTD SVG 1.1//EN" "http://www.w3.org/Graphics/SVG/1.1/DTD/svg11.dtd">
<svg version="1.1" id="Layer_1" xmlns="http://www.w3.org/2000/svg" xmlns:xlink="http://www.w3.org/1999/xlink" x="0px" y="0px"
	 width="142px" height="182px" viewBox="0 0 142 182" enable-background="new 0 0 142 182" xml:space="preserve">
<g>
	<circle fill="#404041" cx="71" cy="111" r="71"/>
	<rect x="49" y="29" fill="#404041" width="42.471" height="17.995"/>
	<ellipse fill="#404041" cx="70.235" cy="29" rx="21.236" ry="5"/>
</g>
<g>
	<g>
		<path fill="#FFFFFF" d="M75.175,25.335c-2.001-4.767-4.473-12.727,0.913-16.302c5.219-3.463,11.563,3.125,14.408,6.734
			c0.811-1.393,1.621-2.786,2.434-4.178c-2.625-0.366-4.227-4.293-1.261-5.234c1.194-0.379,2.491-0.394,3.729-0.451
			c1.953-0.09,3.914,0.067,5.865,0.096c3.226,0.049,3.221-4.951,0-5c-5.129-0.078-11.261-0.877-15.285,2.997
			C81.32,8.481,86.504,15.7,91.598,16.411c2.545,0.355,4.049-2.129,2.434-4.178C89.221,6.128,81.393,0.617,73.564,4.716
			c-7.901,4.138-5.961,15.396-3.211,21.948C71.581,29.591,76.422,28.308,75.175,25.335L75.175,25.335z"/>
	</g>
</g>
<g id="Your_Icon_1_">
	<path fill="#FFFFFF" d="M64.545,116.149l13.994-10.898c-4.381-3.206-7.887-5.782-9.746-7.147c-0.113,0.082-0.193,0.141-0.193,0.141
		s-7.629,2.824-12.685,5.148c-1.704-0.721-3.572-1.122-5.537-1.122c-7.841,0-14.196,6.361-14.196,14.2s6.354,14.197,14.196,14.197
		c7.842,0,14.2-6.358,14.199-14.197C64.58,116.36,64.549,116.26,64.545,116.149z M50.382,123.568c-3.921,0-7.101-3.178-7.101-7.099
		s3.178-7.1,7.101-7.1c3.92,0,7.099,3.178,7.099,7.1C57.479,120.392,54.302,123.568,50.382,123.568z"/>
	<path fill="#FFFFFF" d="M84.274,86.798l8.973,6.992l26.614-20.732c0,0-13.226-0.967-17.612,1.308
		C100.1,75.477,91.991,81.223,84.274,86.798z"/>
	<path fill="#FFFFFF" d="M36.183,75.696c0,7.837,6.355,14.199,14.199,14.199c1.963,0,3.831-0.4,5.534-1.122
		c5.057,2.324,12.685,5.148,12.685,5.148s29.259,21.609,33.648,23.881c4.388,2.272,17.613,1.305,17.613,1.305l-55.317-43.09
		c0.004-0.112,0.033-0.21,0.035-0.319c0-7.841-6.359-14.2-14.198-14.199C42.539,61.498,36.183,67.858,36.183,75.696z M57.479,75.698
		c0,3.92-3.178,7.097-7.099,7.097c-3.92,0-7.1-3.178-7.1-7.099c0-3.922,3.177-7.1,7.099-7.1
		C54.302,68.597,57.479,71.774,57.479,75.698z"/>
</g>
</svg>
